<svg width="710" height="294" viewBox="0 0 710 294" fill="none" xmlns="http://www.w3.org/2000/svg">
<path d="M541.461 12.6047V293.095H569.547C576.996 293.095 584.14 290.14 589.407 284.88C594.675 279.62 597.634 272.485 597.634 265.046V180.899H653.806V265.046C653.806 272.485 656.765 279.62 662.032 284.88C667.299 290.14 674.443 293.095 681.892 293.095H709.978V96.7519C709.978 85.7015 707.799 74.7594 703.565 64.5502C699.33 54.3409 693.124 45.0646 685.3 37.2508C677.476 29.437 668.187 23.2388 657.964 19.01C647.741 14.7812 636.785 12.6047 625.72 12.6047H541.461ZM653.806 124.801H597.634V68.7028H625.72C633.169 68.7028 640.313 71.658 645.58 76.9182C650.847 82.1784 653.806 89.3128 653.806 96.7519V124.801Z" fill="url(#paint0_linear_2349_3)"/>
<path d="M467.345 37.2489C459.528 29.4249 450.24 23.2201 440.016 18.9909C429.791 14.7617 418.83 12.5914 407.763 12.6047H323.504V293.095H351.591C359.04 293.095 366.183 290.14 371.451 284.88C376.718 279.62 379.677 272.485 379.677 265.046V180.899H406.764C453.45 180.899 492.357 142.721 492.014 96.1286C491.877 74.0233 483.012 52.8647 467.345 37.2489ZM427.657 116.589C425.051 119.196 421.954 121.264 418.546 122.673C415.137 124.082 411.483 124.805 407.794 124.801H379.708V68.7028H407.334C422.625 68.7028 435.467 80.725 435.865 95.9728C435.977 99.7865 435.307 103.583 433.895 107.128C432.484 110.674 430.361 113.893 427.657 116.589Z" fill="url(#paint1_linear_2349_3)"/>
<path d="M492.053 293.095H459.114C453.278 293.064 447.594 291.228 442.845 287.841C438.095 284.454 434.512 279.681 432.588 274.178C428.677 263.296 421.497 253.885 412.03 247.231C402.563 240.576 391.269 237.002 379.692 236.997V180.899C406.228 180.904 431.907 190.285 452.182 207.381C472.458 224.477 486.023 248.186 490.477 274.31C491.525 280.517 492.052 286.801 492.053 293.095Z" fill="url(#paint2_linear_2349_3)"/>
<path d="M274.119 152.85V293.095H246.033C238.584 293.095 231.441 290.14 226.173 284.88C220.906 279.62 217.947 272.485 217.947 265.046V124.801H246.033C253.482 124.801 260.626 127.756 265.893 133.016C271.16 138.277 274.119 145.411 274.119 152.85Z" fill="url(#paint3_linear_2349_3)"/>
<path d="M246.033 0.987671L265.897 20.8246C271.163 26.0848 274.122 33.2189 274.122 40.6576C274.122 48.0964 271.163 55.2305 265.897 60.4907L246.033 80.3276L226.178 60.4907C220.911 55.2305 217.952 48.0964 217.952 40.6576C217.952 33.2189 220.911 26.0848 226.178 20.8246L246.033 0.987671Z" fill="#FFB200"/>
<path d="M0.0215454 6.37152H28.1078C35.5567 6.37152 42.7005 9.32668 47.9677 14.5869C53.2349 19.8471 56.194 26.9815 56.194 34.4206V258.813C56.194 266.252 53.2349 273.387 47.9677 278.647C42.7005 283.907 35.5567 286.862 28.1078 286.862H0.0215454" fill="url(#paint4_linear_2349_3)"/>
<path d="M168.539 6.37152C168.539 36.1278 156.703 64.6654 135.634 85.7063C114.565 106.747 85.9897 118.568 56.194 118.568V62.4697C67.771 62.4646 79.0642 58.8907 88.5314 52.2362C97.9986 45.5817 105.178 36.1709 109.09 25.2891C111.014 19.7861 114.596 15.0132 119.346 11.6258C124.096 8.23848 129.779 6.40299 135.616 6.37152H168.539Z" fill="url(#paint5_linear_2349_3)"/>
<path d="M168.539 230.764V286.862H140.453C133.004 286.862 125.86 283.907 120.593 278.647C115.325 273.387 112.366 266.252 112.366 258.813V230.764C112.366 215.886 106.448 201.617 95.9139 191.097C85.3795 180.576 71.0918 174.666 56.194 174.666V118.568C85.9897 118.568 114.565 130.389 135.634 151.429C156.703 172.47 168.539 201.008 168.539 230.764Z" fill="url(#paint6_linear_2349_3)"/>
<defs>
<linearGradient id="paint0_linear_2349_3" x1="625.72" y1="12.6047" x2="625.72" y2="293.095" gradientUnits="userSpaceOnUse">
<stop stop-color="#009270"/>
<stop offset="0.44" stop-color="#01906F"/>
<stop offset="0.64" stop-color="#03896C"/>
<stop offset="0.79" stop-color="#087C66"/>
<stop offset="0.91" stop-color="#0E6A5F"/>
<stop offset="1" stop-color="#145857"/>
</linearGradient>
<linearGradient id="paint1_linear_2349_3" x1="319.057" y1="63.9501" x2="489.231" y2="288.583" gradientUnits="userSpaceOnUse">
<stop stop-color="#009270"/>
<stop offset="0.23" stop-color="#018F6F"/>
<stop offset="0.37" stop-color="#04876B"/>
<stop offset="0.49" stop-color="#097865"/>
<stop offset="0.6" stop-color="#10635C"/>
<stop offset="0.65" stop-color="#145857"/>
</linearGradient>
<linearGradient id="paint2_linear_2349_3" x1="451.375" y1="249.105" x2="317.513" y2="168.939" gradientUnits="userSpaceOnUse">
<stop offset="0.07" stop-color="#009270"/>
<stop offset="0.24" stop-color="#068068"/>
<stop offset="0.51" stop-color="#0E6A5F"/>
<stop offset="0.77" stop-color="#125D59"/>
<stop offset="1" stop-color="#145857"/>
</linearGradient>
<linearGradient id="paint3_linear_2349_3" x1="246.033" y1="124.801" x2="246.033" y2="293.095" gradientUnits="userSpaceOnUse">
<stop stop-color="#009270"/>
<stop offset="0.44" stop-color="#01906F"/>
<stop offset="0.64" stop-color="#03896C"/>
<stop offset="0.79" stop-color="#087C66"/>
<stop offset="0.91" stop-color="#0E6A5F"/>
<stop offset="1" stop-color="#145857"/>
</linearGradient>
<linearGradient id="paint4_linear_2349_3" x1="18.3556" y1="-11.0812" x2="34.2525" y2="268.96" gradientUnits="userSpaceOnUse">
<stop stop-color="#009270"/>
<stop offset="0.44" stop-color="#01906F"/>
<stop offset="0.64" stop-color="#03896C"/>
<stop offset="0.79" stop-color="#087C66"/>
<stop offset="0.91" stop-color="#0E6A5F"/>
<stop offset="1" stop-color="#145857"/>
</linearGradient>
<linearGradient id="paint5_linear_2349_3" x1="56.194" y1="62.4697" x2="168.539" y2="62.4697" gradientUnits="userSpaceOnUse">
<stop stop-color="#145857"/>
<stop offset="0.04" stop-color="#125E5A"/>
<stop offset="0.24" stop-color="#0A7564"/>
<stop offset="0.45" stop-color="#04856B"/>
<stop offset="0.69" stop-color="#018F6F"/>
<stop offset="1" stop-color="#009270"/>
</linearGradient>
<linearGradient id="paint6_linear_2349_3" x1="113.108" y1="191.706" x2="50.0122" y2="98.8792" gradientUnits="userSpaceOnUse">
<stop stop-color="#009270"/>
<stop offset="0.45" stop-color="#0A7665"/>
<stop offset="1" stop-color="#145759"/>
</linearGradient>
</defs>
</svg>
